<svg width="2169.319970703125px" height="429.0799926757812px" xmlns="http://www.w3.org/2000/svg" viewBox="-834.6599853515625 -139.5399963378906 2169.319970703125 429.0799926757812" style="background: none;" preserveAspectRatio="xMidYMid"><defs><linearGradient id="editing-gradient-gradient" x1="0" x2="1" y1="0.5" y2="0.5" gradientUnits="objectBoundingBox"><stop offset="0" stop-color="#0a0a0a"></stop><stop offset="1" stop-color="#0a0a0a"></stop></linearGradient></defs><g><g transform="translate(-541.3999757766724, 163.5)"><path d="M5.80 0L5.80-138.20L117.80-138.20L117.80-80L74.60-80L74.60-72L117.80-72L117.80-59.40L74.60-59.40L74.60-51.40L119.60-51.40L119.60 0L5.80 0ZM185.80-118.20L189.80-43.80L195-43.80L198.80-118.20L253.40-118.20L235.80 0L146 0L128-118.20L185.80-118.20ZM257.80-58.90L257.80-58.90L257.80-58.90Q257.80-89.40 271.70-104.80L271.70-104.80L271.70-104.80Q285.60-120.20 317.20-120.20L317.20-120.20L317.20-120.20Q348.80-120.20 361.20-107.40L361.20-107.40L361.20-107.40Q373.60-94.60 373.60-65.40L373.60-65.40L372.60-50L317.40-50L317.40-43.20L317.40-43.20Q322.40-42 332-42L332-42L332-42Q352.40-42 365-43.80L365-43.80L369.20-44.40L369.20-6.80L369.20-6.80Q367.60-5.80 364.10-4.30L364.10-4.30L364.10-4.30Q360.60-2.80 347.40-0.40L347.40-0.40L347.40-0.40Q334.20 2 318 2L318 2L318 2Q286 2 271.90-13.20L271.90-13.20L271.90-13.20Q257.80-28.40 257.80-58.90ZM314.40-67.80L314.40-67.80L314.40-60L325.80-60L325.80-67.80L325.80-67.80Q325.80-70.40 324.10-72L324.10-72L324.10-72Q322.40-73.60 319.90-73.60L319.90-73.60L319.90-73.60Q317.40-73.60 315.90-72L315.90-72L315.90-72Q314.40-70.40 314.40-67.80ZM385-29.40L385-29.40L385-149L445-149L445-51.40L449.20-51.40L449.20-2.20L449.20-2.20Q438.60 2 419.70 2L419.70 2L419.70 2Q400.80 2 392.90-5.80L392.90-5.80L392.90-5.80Q385-13.60 385-29.40ZM510.80-118.20L514.80-46.60L520-46.60L523.60-118.20L579.20-118.20L561.60 18.60L498.40 18.60L502.80-2L502.80-2Q485.60-2 477.70-7.30L477.70-7.30L477.70-7.30Q469.80-12.60 467.80-25.40L467.80-25.40L453.80-118.20L510.80-118.20ZM644.40-63.40L644.40-63.40L644.40 0L587.80 0L587.80-118.20L638-118.20L640-103.60L640-103.60Q640.80-105.80 643.60-109L643.60-109L643.60-109Q646.40-112.20 649.60-114.40L649.60-114.40L649.60-114.40Q658.40-120.20 673-120.20L673-120.20L673-120.20Q692.60-120.20 702.50-109.40L702.50-109.40L702.50-109.40Q712.40-98.60 712.40-78L712.40-78L712.40 0L655.80 0L655.80-63.40L655.80-63.40Q655.80-65.80 654.10-67.50L654.10-67.50L654.10-67.50Q652.40-69.20 650-69.20L650-69.20L650-69.20Q647.60-69.20 646-67.50L646-67.50L646-67.50Q644.40-65.80 644.40-63.40ZM781.20 0L781.20-138.20L850.00-138.20L850.00-51.40L870.40-51.40L870.40 0L781.20 0ZM911.40-108.40L911.40-108.40L911.40-108.40Q896.20-108.40 889.00-114.40L889.00-114.40L889.00-114.40Q881.80-120.40 881.80-133.60L881.80-133.60L881.80-133.60Q881.80-146.80 889.10-152.60L889.10-152.60L889.10-152.60Q896.40-158.40 911.40-158.40L911.40-158.40L911.40-158.40Q941.40-158.40 941.40-134.20L941.40-134.20L941.40-134.20Q941.40-120.40 934.00-114.40L934.00-114.40L934.00-114.40Q926.60-108.40 911.40-108.40ZM941.40 0L881.80 0L881.80-103.80L941.40-103.80L941.40 0ZM1009.60-63.40L1009.60-63.40L1009.60 0L953.00 0L953.00-118.20L1003.20-118.20L1005.20-103.60L1005.20-103.60Q1006.00-105.80 1008.80-109L1008.80-109L1008.80-109Q1011.60-112.20 1014.80-114.40L1014.80-114.40L1014.80-114.40Q1023.60-120.20 1038.20-120.20L1038.20-120.20L1038.20-120.20Q1057.80-120.20 1067.70-109.40L1067.70-109.40L1067.70-109.40Q1077.60-98.60 1077.60-78L1077.60-78L1077.60 0L1021.00 0L1021.00-63.40L1021.00-63.40Q1021.00-65.80 1019.30-67.50L1019.30-67.50L1019.30-67.50Q1017.60-69.20 1015.20-69.20L1015.20-69.20L1015.20-69.20Q1012.80-69.20 1011.20-67.50L1011.20-67.50L1011.20-67.50Q1009.60-65.80 1009.60-63.40ZM1213.80-149L1213.80 0L1163.40 0L1161.40-14.60L1161.40-14.60Q1160.60-12.40 1158.10-9.20L1158.10-9.20L1158.10-9.20Q1155.60-6 1152.80-3.80L1152.80-3.80L1152.80-3.80Q1145.40 2 1133.80 2L1133.80 2L1133.80 2Q1112.80 2 1101-14L1101-14L1101-14Q1089.20-30 1089.20-58.70L1089.20-58.70L1089.20-58.70Q1089.20-87.40 1101.20-103.80L1101.20-103.80L1101.20-103.80Q1113.20-120.20 1134-120.20L1134-120.20L1134-120.20Q1140.40-120.20 1145.40-118.70L1145.40-118.70L1145.40-118.70Q1150.40-117.20 1152.20-115.80L1152.20-115.80L1154-114.40L1154-149L1213.80-149ZM1145.80-60.60L1145.80-60.60L1145.80-43.80L1145.80-43.80Q1145.80-41.20 1147.30-39.60L1147.30-39.60L1147.30-39.60Q1148.80-38 1151.30-38L1151.30-38L1151.30-38Q1153.80-38 1155.50-39.60L1155.50-39.60L1155.50-39.60Q1157.20-41.20 1157.20-43.80L1157.20-43.80L1157.20-60.60L1157.20-60.60Q1157.20-63 1155.50-64.70L1155.50-64.70L1155.50-64.70Q1153.80-66.40 1151.40-66.40L1151.40-66.40L1151.40-66.40Q1149-66.40 1147.40-64.70L1147.40-64.70L1147.40-64.70Q1145.80-63 1145.80-60.60ZM1282.00-63.40L1282.00-63.40L1282.00 0L1225.40 0L1225.40-118.20L1275.60-118.20L1277.60-103.60L1277.60-103.60Q1278.40-105.80 1281.20-109L1281.20-109L1281.20-109Q1284.00-112.20 1287.20-114.40L1287.20-114.40L1287.20-114.40Q1296.00-120.20 1310.60-120.20L1310.60-120.20L1310.60-120.20Q1330.20-120.20 1340.10-109.40L1340.10-109.40L1340.10-109.40Q1350.00-98.60 1350.00-78L1350.00-78L1350.00 0L1293.40 0L1293.40-63.40L1293.40-63.40Q1293.40-65.80 1291.70-67.50L1291.70-67.50L1291.70-67.50Q1290.00-69.20 1287.60-69.20L1287.60-69.20L1287.60-69.20Q1285.20-69.20 1283.60-67.50L1283.60-67.50L1283.60-67.50Q1282.00-65.80 1282.00-63.40ZM1361.60-58.90L1361.60-58.90L1361.60-58.90Q1361.60-89.40 1375.50-104.80L1375.50-104.80L1375.50-104.80Q1389.40-120.20 1421.00-120.20L1421.00-120.20L1421.00-120.20Q1452.60-120.20 1465.00-107.40L1465.00-107.40L1465.00-107.40Q1477.40-94.60 1477.40-65.40L1477.40-65.40L1476.40-50L1421.20-50L1421.20-43.20L1421.20-43.20Q1426.20-42 1435.80-42L1435.80-42L1435.80-42Q1456.20-42 1468.80-43.80L1468.80-43.80L1473.00-44.40L1473.00-6.80L1473.00-6.80Q1471.40-5.80 1467.90-4.30L1467.90-4.30L1467.90-4.30Q1464.40-2.80 1451.20-0.40L1451.20-0.40L1451.20-0.40Q1438.00 2 1421.80 2L1421.80 2L1421.80 2Q1389.80 2 1375.70-13.20L1375.70-13.20L1375.70-13.20Q1361.60-28.40 1361.60-58.90ZM1418.20-67.80L1418.20-67.80L1418.20-60L1429.60-60L1429.60-67.80L1429.60-67.80Q1429.60-70.40 1427.90-72L1427.90-72L1427.90-72Q1426.20-73.60 1423.70-73.60L1423.70-73.60L1423.70-73.60Q1421.20-73.60 1419.70-72L1419.70-72L1419.70-72Q1418.20-70.40 1418.20-67.80ZM1548.40-57.40L1548.40 0L1488.80 0L1488.80-118.20L1539.00-118.20L1541.00-103.60L1541.00-103.60Q1541.40-104.20 1542.00-105.20L1542.00-105.20L1542.00-105.20Q1542.60-106.20 1545.40-108.70L1545.40-108.70L1545.40-108.70Q1548.20-111.20 1551.80-113.20L1551.80-113.20L1551.80-113.20Q1561.80-118.20 1577.00-118.20L1577.00-118.20L1577.00-54.60L1548.40-57.40Z" fill="url(#editing-gradient-gradient)"></path></g></g><style>text {
  font-size: 64px;
  font-family: Arial Black;
  dominant-baseline: central;
  text-anchor: middle;
}</style></svg>