<svg xmlns="http://www.w3.org/2000/svg" style="background: none;" preserveAspectRatio="xMidYMid" viewBox="-448.1 29.92 1396.2 163.67"><defs><linearGradient id="editing-gradient-gradient" x1="0" x2="1" y1="0.5" y2="0.5" gradientUnits="objectBoundingBox"><stop offset="0" stop-color="#0a0a0a"/><stop offset="1" stop-color="#0a0a0a"/></linearGradient></defs><g><g transform="translate(-461.0250120162964, 156.81500625610352)"><path d="M12.95 0L12.95-120.40L117.08-120.40L117.08-91.53L51.63-91.53L51.63-74.90L107.63-74.90L107.63-47.25L51.63-47.25L51.63-28.88L118.30-28.88L118.30 0L12.95 0ZM197.93 0L161.35 0L126.35-92.40L163.80-92.40L180.78-34.83L182-34.83L198.98-92.40L233.28-92.40L197.93 0ZM291.55-94.50L291.55-94.50Q316.93-94.50 330.31-82.60L330.31-82.60L330.31-82.60Q343.70-70.70 343.70-46.20L343.70-46.20L343.70-40.25L274.40-40.25L274.40-40.25Q274.40-30.28 278.86-25.20L278.86-25.20L278.86-25.20Q283.33-20.13 292.95-20.13L292.95-20.13L292.95-20.13Q301.70-20.13 305.81-23.80L305.81-23.80L305.81-23.80Q309.93-27.48 309.93-33.60L309.93-33.60L343.70-33.60L343.70-33.60Q343.70-16.80 330.93-7.35L330.93-7.35L330.93-7.35Q318.15 2.10 293.65 2.10L293.65 2.10L293.65 2.10Q267.93 2.10 253.75-9.89L253.75-9.89L253.75-9.89Q239.58-21.88 239.58-46.20L239.58-46.20L239.58-46.20Q239.58-70 253.40-82.25L253.40-82.25L253.40-82.25Q267.23-94.50 291.55-94.50L291.55-94.50ZM292.95-72.28L292.95-72.28Q276.50-72.28 274.58-56.70L274.58-56.70L308.53-56.70L308.53-56.70Q308.53-63.88 304.41-68.08L304.41-68.08L304.41-68.08Q300.30-72.28 292.95-72.28L292.95-72.28ZM396.55 0L361.73 0L361.73-126.88L396.55-126.88L396.55 0ZM482.30-2.80L482.30-2.80Q475.13 16.63 464.71 26.69L464.71 26.69L464.71 26.69Q454.30 36.75 435.58 36.75L435.58 36.75L435.58 36.75Q424.20 36.75 415.45 33.60L415.45 33.60L415.45 12.78L429.45 12.78L429.45 12.78Q442.58 12.78 445.03 0L445.03 0L408.28-92.40L445.73-92.40L463.40-30.98L464.63-30.98L480.90-92.40L515.20-92.40L482.30-2.80ZM589.40-94.50L589.40-94.50Q605.50-94.50 613.55-85.58L613.55-85.58L613.55-85.58Q621.60-76.65 621.60-59.85L621.60-59.85L621.60 0L586.78 0L586.78-55.65L586.78-55.65Q586.78-61.60 583.71-65.19L583.71-65.19L583.71-65.19Q580.65-68.78 575.05-68.78L575.05-68.78L575.05-68.78Q568.58-68.78 564.55-64.58L564.55-64.58L564.55-64.58Q560.53-60.38 560.53-54.25L560.53-54.25L560.53 0L525.70 0L525.70-92.40L554.23-92.40L556.50-78.40L556.50-78.40Q561.93-85.75 570.76-90.13L570.76-90.13L570.76-90.13Q579.60-94.50 589.40-94.50L589.40-94.50ZM703.15 0L703.15-120.40L741.83-120.40L741.83-30.80L803.60-30.80L803.60 0L703.15 0ZM853.48-103.25L818.65-103.25L818.65-126.88L853.48-126.88L853.48-103.25ZM853.48 0L818.65 0L818.65-92.40L853.48-92.40L853.48 0ZM939.40-94.50L939.40-94.50Q955.50-94.50 963.55-85.58L963.55-85.58L963.55-85.58Q971.60-76.65 971.60-59.85L971.60-59.85L971.60 0L936.78 0L936.78-55.65L936.78-55.65Q936.78-61.60 933.71-65.19L933.71-65.19L933.71-65.19Q930.65-68.78 925.05-68.78L925.05-68.78L925.05-68.78Q918.58-68.78 914.55-64.58L914.55-64.58L914.55-64.58Q910.53-60.38 910.53-54.25L910.53-54.25L910.53 0L875.70 0L875.70-92.40L904.23-92.40L906.50-78.40L906.50-78.40Q911.93-85.75 920.76-90.13L920.76-90.13L920.76-90.13Q929.60-94.50 939.40-94.50L939.40-94.50ZM1087.98 0L1059.63 0L1056.65-13.13L1056.65-13.13Q1046.50 2.10 1027.25 2.10L1027.25 2.10L1027.25 2.10Q1008.53 2.10 998.38-10.15L998.38-10.15L998.38-10.15Q988.23-22.40 988.23-46.38L988.23-46.38L988.23-46.38Q988.23-70.18 998.38-82.34L998.38-82.34L998.38-82.34Q1008.53-94.50 1027.25-94.50L1027.25-94.50L1027.25-94.50Q1043.18-94.50 1053.15-83.83L1053.15-83.83L1053.15-126.88L1087.98-126.88L1087.98 0ZM1038.10-68.78L1038.10-68.78Q1023.05-68.78 1023.05-50.75L1023.05-50.75L1023.05-41.48L1023.05-41.48Q1023.05-23.63 1038.10-23.63L1038.10-23.63L1038.10-23.63Q1045.80-23.63 1049.65-29.05L1049.65-29.05L1049.65-29.05Q1053.50-34.48 1053.50-43.23L1053.50-43.23L1053.50-49.00L1053.50-49.00Q1053.50-57.75 1049.65-63.26L1049.65-63.26L1049.65-63.26Q1045.80-68.78 1038.10-68.78L1038.10-68.78ZM1172.85-94.50L1172.85-94.50Q1188.95-94.50 1197-85.58L1197-85.58L1197-85.58Q1205.05-76.65 1205.05-59.85L1205.05-59.85L1205.05 0L1170.23 0L1170.23-55.65L1170.23-55.65Q1170.23-61.60 1167.16-65.19L1167.16-65.19L1167.16-65.19Q1164.10-68.78 1158.50-68.78L1158.50-68.78L1158.50-68.78Q1152.03-68.78 1148-64.58L1148-64.58L1148-64.58Q1143.98-60.38 1143.98-54.25L1143.98-54.25L1143.98 0L1109.15 0L1109.15-92.40L1137.68-92.40L1139.95-78.40L1139.95-78.40Q1145.38-85.75 1154.21-90.13L1154.21-90.13L1154.21-90.13Q1163.05-94.50 1172.85-94.50L1172.85-94.50ZM1273.65-94.50L1273.65-94.50Q1299.03-94.50 1312.41-82.60L1312.41-82.60L1312.41-82.60Q1325.80-70.70 1325.80-46.20L1325.80-46.20L1325.80-40.25L1256.50-40.25L1256.50-40.25Q1256.50-30.28 1260.96-25.20L1260.96-25.20L1260.96-25.20Q1265.42-20.13 1275.05-20.13L1275.05-20.13L1275.05-20.13Q1283.80-20.13 1287.91-23.80L1287.91-23.80L1287.91-23.80Q1292.03-27.48 1292.03-33.60L1292.03-33.60L1325.80-33.60L1325.80-33.60Q1325.80-16.80 1313.03-7.35L1313.03-7.35L1313.03-7.35Q1300.25 2.10 1275.75 2.10L1275.75 2.10L1275.75 2.10Q1250.03 2.10 1235.85-9.89L1235.85-9.89L1235.85-9.89Q1221.67-21.88 1221.67-46.20L1221.67-46.20L1221.67-46.20Q1221.67-70 1235.50-82.25L1235.50-82.25L1235.50-82.25Q1249.33-94.50 1273.65-94.50L1273.65-94.50ZM1275.05-72.28L1275.05-72.28Q1258.60-72.28 1256.67-56.70L1256.67-56.70L1290.63-56.70L1290.63-56.70Q1290.63-63.88 1286.51-68.08L1286.51-68.08L1286.51-68.08Q1282.40-72.28 1275.05-72.28L1275.05-72.28ZM1398.77-94.68L1398.77-94.68Q1402.80-94.68 1405.95-93.71L1405.95-93.71L1405.95-93.71Q1409.10-92.75 1409.10-92.58L1409.10-92.58L1409.10-63.35L1397.90-63.35L1397.90-63.35Q1387.05-63.35 1382.24-57.75L1382.24-57.75L1382.24-57.75Q1377.42-52.15 1377.42-41.13L1377.42-41.13L1377.42 0L1342.60 0L1342.60-92.40L1371.13-92.40L1373.40-78.40L1373.40-78.40Q1376.55-86.45 1383.38-90.56L1383.38-90.56L1383.38-90.56Q1390.20-94.68 1398.77-94.68L1398.77-94.68Z" fill="url(#editing-gradient-gradient)"/></g></g><style>text {
  font-size: 64px;
  font-family: Arial Black;
  dominant-baseline: central;
  text-anchor: middle;
}</style></svg>