<svg width="1007.37998046875px" height="188.03999023437498px" xmlns="http://www.w3.org/2000/svg" viewBox="-253.689990234375 -19.01999511718749 1007.37998046875 188.03999023437498" style="background: none;" preserveAspectRatio="xMidYMid"><defs><linearGradient id="editing-gradient-gradient" x1="0" x2="1" y1="0.5" y2="0.5" gradientUnits="objectBoundingBox"><stop offset="0" stop-color="#0a0a0a"></stop><stop offset="1" stop-color="#0a0a0a"></stop></linearGradient></defs><g><g transform="translate(-115.67001724243164, 117.07500171661377)"><path d="M6.66 0L6.66-61.92L60.21-61.92L60.21-47.07L26.55-47.07L26.55-38.52L55.35-38.52L55.35-24.30L26.55-24.30L26.55-14.85L60.84-14.85L60.84 0L6.66 0ZM101.79 0L82.98 0L64.98-47.52L84.24-47.52L92.97-17.91L93.60-17.91L102.33-47.52L119.97-47.52L101.79 0ZM149.94-48.60L149.94-48.60Q162.99-48.60 169.88-42.48L169.88-42.48L169.88-42.48Q176.76-36.36 176.76-23.76L176.76-23.76L176.76-20.70L141.12-20.70L141.12-20.70Q141.12-15.57 143.41-12.96L143.41-12.96L143.41-12.96Q145.71-10.35 150.66-10.35L150.66-10.35L150.66-10.35Q155.16-10.35 157.28-12.24L157.28-12.24L157.28-12.24Q159.39-14.13 159.39-17.28L159.39-17.28L176.76-17.28L176.76-17.28Q176.76-8.64 170.19-3.78L170.19-3.78L170.19-3.78Q163.62 1.08 151.02 1.08L151.02 1.08L151.02 1.08Q137.79 1.08 130.50-5.08L130.50-5.08L130.50-5.08Q123.21-11.25 123.21-23.76L123.21-23.76L123.21-23.76Q123.21-36 130.32-42.30L130.32-42.30L130.32-42.30Q137.43-48.60 149.94-48.60L149.94-48.60ZM150.66-37.17L150.66-37.17Q142.20-37.17 141.21-29.16L141.21-29.16L158.67-29.16L158.67-29.16Q158.67-32.85 156.56-35.01L156.56-35.01L156.56-35.01Q154.44-37.17 150.66-37.17L150.66-37.17ZM203.94 0L186.03 0L186.03-65.25L203.94-65.25L203.94 0ZM248.04-1.44L248.04-1.44Q244.35 8.55 239.00 13.72L239.00 13.72L239.00 13.72Q233.64 18.90 224.01 18.90L224.01 18.90L224.01 18.90Q218.16 18.90 213.66 17.28L213.66 17.28L213.66 6.57L220.86 6.57L220.86 6.57Q227.61 6.57 228.87 0L228.87 0L209.97-47.52L229.23-47.52L238.32-15.93L238.95-15.93L247.32-47.52L264.96-47.52L248.04-1.44ZM303.12-48.60L303.12-48.60Q311.40-48.60 315.54-44.01L315.54-44.01L315.54-44.01Q319.68-39.42 319.68-30.78L319.68-30.78L319.68 0L301.77 0L301.77-28.62L301.77-28.62Q301.77-31.68 300.19-33.52L300.19-33.52L300.19-33.52Q298.62-35.37 295.74-35.37L295.74-35.37L295.74-35.37Q292.41-35.37 290.34-33.21L290.34-33.21L290.34-33.21Q288.27-31.05 288.27-27.90L288.27-27.90L288.27 0L270.36 0L270.36-47.52L285.03-47.52L286.20-40.32L286.20-40.32Q288.99-44.10 293.53-46.35L293.53-46.35L293.53-46.35Q298.08-48.60 303.12-48.60L303.12-48.60ZM361.62 0L361.62-61.92L381.51-61.92L381.51-15.84L413.28-15.84L413.28 0L361.62 0ZM438.93-53.10L421.02-53.10L421.02-65.25L438.93-65.25L438.93-53.10ZM438.93 0L421.02 0L421.02-47.52L438.93-47.52L438.93 0ZM483.12-48.60L483.12-48.60Q491.40-48.60 495.54-44.01L495.54-44.01L495.54-44.01Q499.68-39.42 499.68-30.78L499.68-30.78L499.68 0L481.77 0L481.77-28.62L481.77-28.62Q481.77-31.68 480.20-33.52L480.20-33.52L480.20-33.52Q478.62-35.37 475.74-35.37L475.74-35.37L475.74-35.37Q472.41-35.37 470.34-33.21L470.34-33.21L470.34-33.21Q468.27-31.05 468.27-27.90L468.27-27.90L468.27 0L450.36 0L450.36-47.52L465.03-47.52L466.20-40.32L466.20-40.32Q468.99-44.10 473.54-46.35L473.54-46.35L473.54-46.35Q478.08-48.60 483.12-48.60L483.12-48.60ZM559.53 0L544.95 0L543.42-6.75L543.42-6.75Q538.20 1.08 528.30 1.08L528.30 1.08L528.30 1.08Q518.67 1.08 513.45-5.22L513.45-5.22L513.45-5.22Q508.23-11.52 508.23-23.85L508.23-23.85L508.23-23.85Q508.23-36.09 513.45-42.34L513.45-42.34L513.45-42.34Q518.67-48.60 528.30-48.60L528.30-48.60L528.30-48.60Q536.49-48.60 541.62-43.11L541.62-43.11L541.62-65.25L559.53-65.25L559.53 0ZM533.88-35.37L533.88-35.37Q526.14-35.37 526.14-26.10L526.14-26.10L526.14-21.33L526.14-21.33Q526.14-12.15 533.88-12.15L533.88-12.15L533.88-12.15Q537.84-12.15 539.82-14.94L539.82-14.94L539.82-14.94Q541.80-17.73 541.80-22.23L541.80-22.23L541.80-25.20L541.80-25.20Q541.80-29.70 539.82-32.53L539.82-32.53L539.82-32.53Q537.84-35.37 533.88-35.37L533.88-35.37ZM603.18-48.60L603.18-48.60Q611.46-48.60 615.60-44.01L615.60-44.01L615.60-44.01Q619.74-39.42 619.74-30.78L619.74-30.78L619.74 0L601.83 0L601.83-28.62L601.83-28.62Q601.83-31.68 600.25-33.52L600.25-33.52L600.25-33.52Q598.68-35.37 595.80-35.37L595.80-35.37L595.80-35.37Q592.47-35.37 590.40-33.21L590.40-33.21L590.40-33.21Q588.33-31.05 588.33-27.90L588.33-27.90L588.33 0L570.42 0L570.42-47.52L585.09-47.52L586.26-40.32L586.26-40.32Q589.05-44.10 593.60-46.35L593.60-46.35L593.60-46.35Q598.14-48.60 603.18-48.60L603.18-48.60ZM655.02-48.60L655.02-48.60Q668.07-48.60 674.95-42.48L674.95-42.48L674.95-42.48Q681.84-36.36 681.84-23.76L681.84-23.76L681.84-20.70L646.20-20.70L646.20-20.70Q646.20-15.57 648.50-12.96L648.50-12.96L648.50-12.96Q650.79-10.35 655.74-10.35L655.74-10.35L655.74-10.35Q660.24-10.35 662.35-12.24L662.35-12.24L662.35-12.24Q664.47-14.13 664.47-17.28L664.47-17.28L681.84-17.28L681.84-17.28Q681.84-8.64 675.27-3.78L675.27-3.78L675.27-3.78Q668.70 1.08 656.10 1.08L656.10 1.08L656.10 1.08Q642.87 1.08 635.58-5.08L635.58-5.08L635.58-5.08Q628.29-11.25 628.29-23.76L628.29-23.76L628.29-23.76Q628.29-36 635.40-42.30L635.40-42.30L635.40-42.30Q642.51-48.60 655.02-48.60L655.02-48.60ZM655.74-37.17L655.74-37.17Q647.28-37.17 646.29-29.16L646.29-29.16L663.75-29.16L663.75-29.16Q663.75-32.85 661.63-35.01L661.63-35.01L661.63-35.01Q659.52-37.17 655.74-37.17L655.74-37.17ZM719.37-48.69L719.37-48.69Q721.44-48.69 723.06-48.20L723.06-48.20L723.06-48.20Q724.68-47.70 724.68-47.61L724.68-47.61L724.68-32.58L718.92-32.58L718.92-32.58Q713.34-32.58 710.86-29.70L710.86-29.70L710.86-29.70Q708.39-26.82 708.39-21.15L708.39-21.15L708.39 0L690.48 0L690.48-47.52L705.15-47.52L706.32-40.32L706.32-40.32Q707.94-44.46 711.45-46.57L711.45-46.57L711.45-46.57Q714.96-48.69 719.37-48.69L719.37-48.69Z" fill="url(#editing-gradient-gradient)"></path></g></g><style>text {
  font-size: 64px;
  font-family: Arial Black;
  dominant-baseline: central;
  text-anchor: middle;
}</style></svg>